# xmcd
#
# Track frame offsets: 
#        150
#        21700
#        40084
#        67550
#        85756
#        100505
#        117146
#        139344
#        161862
#        189680
#        202405
#        221494
#        236866
#        254643
#        277587
#        292020
#
# Disc length: 4064 seconds
#
# Revision: 2
# Processed by: cddbd v1.5.2PL0 Copyright (c) Steve Scherf et al.
# Submitted via: ExactAudioCopyFreeDBPlugin 1.0
#
DISCID=f20fde10
DTITLE=Various Artist - New Country Rock Vol. 3
DYEAR=2011
DGENRE=Country
TTITLE0=Mark Selby - Guitar In The Rain
TTITLE1=Laura Bryna - My Mistakes
TTITLE2=Gin Blossoms - Someday Soon
TTITLE3=Tracy Lawrence - The Rock
TTITLE4=Michael Scott - Bring It On
TTITLE5=Rick Monroe - Runaway
TTITLE6=John Campbelljohn - Pocket Full Of Stones
TTITLE7=Confederate Railroad - Queen Of Memphis
TTITLE8=Dean Collins - See You Tonight
TTITLE9=Steff Nevers - Alphabet Song
TTITLE10=Irion - I See You Crying
TTITLE11=Miko Marks - All I Wanna Do
TTITLE12=Sylkie Monoff - Have It All
TTITLE13=Steve Fister - Come Together
TTITLE14=Cherish Alexander - Another Day
TTITLE15=Cody McCarver - White Trash With Money
EXTD=
EXTT0=
EXTT1=
EXTT2=
EXTT3=
EXTT4=
EXTT5=
EXTT6=
EXTT7=
EXTT8=
EXTT9=
EXTT10=
EXTT11=
EXTT12=
EXTT13=
EXTT14=
EXTT15=
PLAYORDER=
